<svg width="40" height="40" viewBox="0 0 40 40" fill="none" xmlns="http://www.w3.org/2000/svg">
<path d="M36.9231 0H3.07692C2.26087 0 1.47824 0.383116 0.90121 1.06507C0.324175 1.74702 0 2.67194 0 3.63636V36.3636C0 37.3281 0.324175 38.253 0.90121 38.9349C1.47824 39.6169 2.26087 40 3.07692 40H36.9231C37.7391 40 38.5218 39.6169 39.0988 38.9349C39.6758 38.253 40 37.3281 40 36.3636V3.63636C40 2.67194 39.6758 1.74702 39.0988 1.06507C38.5218 0.383116 37.7391 0 36.9231 0ZM34.9346 10.3773L16.4731 32.1955C16.3302 32.3645 16.1605 32.4986 15.9738 32.5901C15.787 32.6816 15.5868 32.7287 15.3846 32.7287C15.1824 32.7287 14.9822 32.6816 14.7955 32.5901C14.6087 32.4986 14.439 32.3645 14.2962 32.1955L6.60385 23.1045C6.31517 22.7634 6.15299 22.3007 6.15299 21.8182C6.15299 21.3357 6.31517 20.873 6.60385 20.5318C6.89252 20.1907 7.28406 19.999 7.69231 19.999C8.10056 19.999 8.49209 20.1907 8.78077 20.5318L15.3846 28.3386L32.7577 7.80454C33.0464 7.46338 33.4379 7.27172 33.8462 7.27172C34.2544 7.27172 34.6459 7.46338 34.9346 7.80454C35.2233 8.14571 35.3855 8.60843 35.3855 9.09091C35.3855 9.57339 35.2233 10.0361 34.9346 10.3773Z" fill="#8FB43A"/>
</svg>
