<?xml version="1.0" standalone="no"?>
<!DOCTYPE svg PUBLIC "-//W3C//DTD SVG 20010904//EN"
 "http://www.w3.org/TR/2001/REC-SVG-20010904/DTD/svg10.dtd">
<svg version="1.0" xmlns="http://www.w3.org/2000/svg"
 width="450.000000pt" height="300.000000pt" viewBox="0 0 450.000000 300.000000"
 preserveAspectRatio="xMidYMid meet">

<g transform="translate(0.000000,300.000000) scale(0.100000,-0.100000)"
fill="#000000" stroke="none">
<path d="M1105 2431 c-28 -12 -55 -44 -64 -77 l-7 -29 -139 -3 c-153 -3 -175
-11 -175 -63 0 -59 0 -59 487 -59 388 0 443 -2 457 -16 20 -20 20 -43 0 -72
l-15 -22 -560 0 -560 0 -24 -25 c-30 -29 -32 -56 -7 -78 17 -15 66 -17 500
-17 424 0 482 -2 496 -16 20 -19 20 -54 2 -80 -14 -18 -32 -19 -437 -22 -374
-2 -425 -5 -441 -19 -21 -19 -24 -66 -5 -82 9 -7 180 -11 551 -13 519 -3 538
-4 552 -22 19 -26 18 -39 -7 -70 l-20 -26 -634 0 c-596 0 -634 -1 -655 -18
-28 -22 -30 -70 -4 -89 14 -10 111 -13 474 -13 341 0 459 -3 468 -12 19 -19
15 -76 -6 -87 -9 -5 -98 -11 -197 -13 l-180 -3 -12 -125 c-6 -69 -14 -175 -18
-237 -8 -111 -7 -111 18 -137 26 -26 29 -26 170 -26 l144 0 6 41 c13 94 94
210 188 266 154 92 333 77 449 -39 55 -56 78 -104 93 -193 l12 -75 589 2 589
3 13 52 c39 153 147 258 305 299 118 30 229 2 317 -80 60 -56 91 -118 105
-207 l11 -69 36 0 c39 0 82 26 100 60 12 21 50 438 50 538 0 43 -7 81 -19 107
-28 61 -366 425 -421 453 -42 21 -56 22 -269 22 l-224 0 7 78 c4 42 9 120 13
172 5 94 5 95 -22 120 l-27 25 -1016 2 c-559 1 -1026 -2 -1037 -6z m2532 -508
c17 -10 93 -85 168 -168 l137 -150 -343 -3 c-188 -1 -344 0 -347 2 -4 5 16
274 24 314 4 22 6 22 167 22 136 0 167 -3 194 -17z"/>
<path d="M1598 1149 c-186 -29 -313 -235 -253 -410 51 -149 237 -219 387 -146
71 35 150 119 172 183 9 26 16 77 16 114 0 172 -143 287 -322 259z m112 -165
c86 -51 79 -188 -12 -244 -53 -32 -91 -35 -142 -11 -110 54 -96 210 24 263 29
13 102 8 130 -8z"/>
<path d="M3529 1150 c-95 -16 -185 -82 -234 -172 -22 -41 -30 -69 -33 -128 -5
-86 12 -137 63 -198 74 -88 223 -114 336 -59 110 53 179 155 187 275 4 66 2
78 -27 136 -24 50 -42 71 -84 99 -28 20 -70 39 -92 42 -22 4 -47 8 -55 10 -8
1 -36 -1 -61 -5z m129 -184 c35 -32 37 -38 37 -93 0 -72 -28 -117 -93 -145
-104 -46 -202 24 -190 136 10 84 71 135 161 136 40 0 53 -5 85 -34z"/>
</g>
</svg>
