<svg width="37" height="41" viewBox="0 0 37 41" fill="none" xmlns="http://www.w3.org/2000/svg">
<path d="M30.0625 19.2188C30.0614 17.8435 29.7276 16.4936 29.0957 15.3099C28.4639 14.1262 27.5572 13.1518 26.47 12.4883C27.2894 11.5413 27.7478 10.2807 27.75 8.96875H25.4375C25.4369 9.64816 25.1931 10.2995 24.7595 10.78C24.326 11.2604 23.7381 11.5306 23.125 11.5312C21.3079 11.5339 19.5641 12.326 18.2681 13.7374C16.9721 15.1489 16.2272 17.0671 16.1933 19.0804C14.7108 17.4072 13.8787 15.1573 13.875 12.8125C13.872 11.6794 13.5298 10.5794 12.9021 9.68487C12.2743 8.79035 11.3966 8.15186 10.4062 7.86944V5.125H8.09375V7.86944C7.10344 8.15186 6.22566 8.79035 5.59795 9.68487C4.97023 10.5794 4.62804 11.6794 4.625 12.8125V19.2188H2.3125V20.5C2.3125 25.2573 4.01796 29.8198 7.05371 33.1837C10.0895 36.5477 14.2068 38.4375 18.5 38.4375C22.7932 38.4375 26.9105 36.5477 29.9463 33.1837C32.982 29.8198 34.6875 25.2573 34.6875 20.5V19.2188H30.0625ZM23.125 14.0938C24.3512 14.0954 25.5267 14.6359 26.3937 15.5967C27.2607 16.5575 27.7485 17.86 27.75 19.2188H18.5C18.5015 17.86 18.9893 16.5575 19.8563 15.5967C20.7233 14.6359 21.8988 14.0954 23.125 14.0938ZM6.9375 12.8125C6.9375 12.1329 7.18114 11.4811 7.61482 11.0005C8.04849 10.52 8.63669 10.25 9.25 10.25C9.86331 10.25 10.4515 10.52 10.8852 11.0005C11.3189 11.4811 11.5625 12.1329 11.5625 12.8125C11.5671 15.0952 12.1837 17.325 13.3339 19.2188H6.9375V12.8125ZM18.5 35.875C15.0214 35.8702 11.671 34.4198 9.1108 31.8103C6.55058 29.2008 4.96679 25.622 4.67241 21.7812H32.3287C32.0343 25.6223 30.4504 29.2012 27.8899 31.8107C25.3295 34.4202 21.9788 35.8705 18.5 35.875Z" fill="black"/>
</svg>
