<svg width="28" height="28" viewBox="0 0 28 28" fill="none" xmlns="http://www.w3.org/2000/svg">
<path d="M22 22C22.7293 22 23.4288 22.2897 23.9445 22.8055C24.4603 23.3212 24.75 24.0207 24.75 24.75C24.75 25.4793 24.4603 26.1788 23.9445 26.6945C23.4288 27.2103 22.7293 27.5 22 27.5C21.2707 27.5 20.5712 27.2103 20.0555 26.6945C19.5397 26.1788 19.25 25.4793 19.25 24.75C19.25 23.2237 20.4737 22 22 22ZM0 0H4.49625L5.78875 2.75H26.125C26.4897 2.75 26.8394 2.89487 27.0973 3.15273C27.3551 3.41059 27.5 3.76033 27.5 4.125C27.5 4.35875 27.4312 4.5925 27.335 4.8125L22.4125 13.7088C21.945 14.5475 21.0375 15.125 20.0063 15.125H9.7625L8.525 17.3663L8.48375 17.5312C8.48375 17.6224 8.51997 17.7099 8.58443 17.7743C8.6489 17.8388 8.73633 17.875 8.8275 17.875H24.75V20.625H8.25C7.52065 20.625 6.82118 20.3353 6.30546 19.8195C5.78973 19.3038 5.5 18.6043 5.5 17.875C5.5 17.3937 5.62375 16.94 5.83 16.555L7.7 13.1863L2.75 2.75H0V0ZM8.25 22C8.97935 22 9.67882 22.2897 10.1945 22.8055C10.7103 23.3212 11 24.0207 11 24.75C11 25.4793 10.7103 26.1788 10.1945 26.6945C9.67882 27.2103 8.97935 27.5 8.25 27.5C7.52065 27.5 6.82118 27.2103 6.30546 26.6945C5.78973 26.1788 5.5 25.4793 5.5 24.75C5.5 23.2237 6.72375 22 8.25 22ZM20.625 12.375L24.4475 5.5H7.0675L10.3125 12.375H20.625Z" fill="black"/>
</svg>
