<svg width="43" height="46" viewBox="0 0 43 46" fill="none" xmlns="http://www.w3.org/2000/svg">
<path id="Vector" d="M26.1058 6.36516C26.1058 6.36516 26.33 10.502 29.7188 14.1496C33.1076 17.7992 36.9468 18.0428 36.9468 18.0428L38.7543 16.0962C40.1922 14.5477 41 12.4474 41 10.2574C41 8.06738 40.1922 5.96708 38.7543 4.41853C37.3165 2.86997 35.3663 2 33.3328 2C31.2994 2 29.3492 2.86997 27.9113 4.41853L26.1038 6.36516L21.5022 11.321M36.9468 18.0407L26.6907 29.0905L20.6443 35.5982L20.3323 35.9363C19.2053 37.148 18.6418 37.7548 18.0218 38.2756C17.2901 38.8907 16.4983 39.4181 15.6605 39.8485C14.9508 40.2117 14.1962 40.4826 12.6851 41.0244L6.28767 43.3217M6.28767 43.3217L4.72391 43.8845C4.35939 44.0162 3.96801 44.0357 3.59376 43.9409C3.21951 43.8461 2.87721 43.6408 2.60536 43.348C2.3335 43.0553 2.14286 42.6866 2.05487 42.2836C1.96687 41.8805 1.985 41.459 2.10723 41.0664L2.62979 39.3823M6.28767 43.3217L2.62979 39.3823M2.62979 39.3823L4.7629 32.4924C5.26596 30.865 5.51749 30.0523 5.85481 29.2879C6.25453 28.385 6.74393 27.5324 7.31524 26.7449C7.79879 26.0772 8.3623 25.4703 9.48735 24.2586L14.6778 18.6707" stroke="black" stroke-width="3" stroke-linecap="round"/>
</svg>
