<svg width="32" height="32" viewBox="0 0 32 32" fill="none" xmlns="http://www.w3.org/2000/svg">
<rect width="32" height="32" fill="#1E1E1E"/>
<rect x="-517" y="-31" width="622" height="432" rx="90" fill="#8FB43A"/>
<path d="M20.238 16.004L30.121 6.12101C30.4033 5.8433 30.6279 5.51245 30.7817 5.14752C30.9355 4.7826 31.0156 4.39082 31.0172 3.99481C31.0189 3.59879 30.9421 3.20636 30.7914 2.84016C30.6406 2.47396 30.4188 2.14123 30.1388 1.86117C29.8588 1.58111 29.5261 1.35925 29.16 1.2084C28.7938 1.05755 28.4014 0.980697 28.0054 0.982262C27.6094 0.983828 27.2176 1.06379 26.8526 1.21753C26.4877 1.37127 26.1567 1.59574 25.879 1.87801L15.996 11.761L6.11297 1.87901C5.83437 1.60041 5.50362 1.37941 5.13962 1.22864C4.77561 1.07786 4.38547 1.00026 3.99147 1.00026C3.59747 1.00026 3.20733 1.07786 2.84332 1.22864C2.47931 1.37941 2.14857 1.60041 1.86997 1.87901C1.30731 2.44167 0.991216 3.20479 0.991216 4.00051C0.991216 4.79623 1.30731 5.55935 1.86997 6.12201L11.753 16.004L1.84597 25.911C1.29099 26.4752 0.981452 27.2359 0.984768 28.0273C0.988083 28.8187 1.30399 29.5768 1.86367 30.1363C2.42335 30.6959 3.18147 31.0116 3.97288 31.0147C4.76429 31.0178 5.52488 30.7081 6.08897 30.153L15.995 20.247L25.877 30.129C26.463 30.715 27.231 31.008 27.998 31.008C28.765 31.008 29.533 30.715 30.119 30.129C30.3977 29.8506 30.6188 29.5199 30.7697 29.156C30.9205 28.7921 30.9982 28.402 30.9982 28.008C30.9982 27.614 30.9205 27.2239 30.7697 26.86C30.6188 26.4961 30.3977 26.1654 30.119 25.887L20.238 16.004Z" fill="#DCDFDA"/>
</svg>
