<svg width="193" height="195" viewBox="0 0 193 195" fill="none" xmlns="http://www.w3.org/2000/svg">
<path d="M48.2496 107.25C45.6903 107.25 43.2358 106.223 41.426 104.394C39.6163 102.566 38.5996 100.086 38.5996 97.5C38.5996 94.9141 39.6163 92.4342 41.426 90.6057C43.2358 88.7772 45.6903 87.75 48.2496 87.75H144.75C147.309 87.75 149.763 88.7772 151.573 90.6057C153.383 92.4342 154.4 94.9141 154.4 97.5C154.4 100.086 153.383 102.566 151.573 104.394C149.763 106.223 147.309 107.25 144.75 107.25H48.2496Z" fill="#DCDFDA"/>
<path d="M86.8496 48.75C86.8496 46.1641 87.8663 43.6842 89.676 41.8557C91.4858 40.0272 93.9403 39 96.4996 39C99.0589 39 101.513 40.0272 103.323 41.8557C105.133 43.6842 106.15 46.1641 106.15 48.75V146.25C106.15 148.836 105.133 151.316 103.323 153.144C101.513 154.973 99.0589 156 96.4996 156C93.9403 156 91.4858 154.973 89.676 153.144C87.8663 151.316 86.8496 148.836 86.8496 146.25V48.75Z" fill="#DCDFDA"/>
</svg>
