<svg width="50" height="50" viewBox="0 0 50 50" fill="none" xmlns="http://www.w3.org/2000/svg">
<path d="M32.054 25.0092L48.5078 8.55535C48.9779 8.09301 49.3517 7.54218 49.6078 6.93462C49.8639 6.32707 49.9972 5.67483 50 5.01551C50.0027 4.3562 49.8749 3.70286 49.6239 3.09319C49.3729 2.48351 49.0037 1.92956 48.5375 1.4633C48.0714 0.997032 47.5175 0.627676 46.9079 0.376533C46.2983 0.125391 45.645 -0.00256765 44.9857 3.90385e-05C44.3263 0.00264572 43.6741 0.135766 43.0665 0.391721C42.4588 0.647676 41.9079 1.0214 41.4455 1.49134L24.9916 17.9452L8.5378 1.493C8.07397 1.02917 7.52332 0.661242 6.9173 0.410219C6.31128 0.159197 5.66174 0.0299965 5.00579 0.0299965C4.34984 0.0299965 3.7003 0.159197 3.09428 0.410219C2.48826 0.661242 1.93761 1.02917 1.47378 1.493C0.537038 2.42975 0.0107794 3.70025 0.0107794 5.02501C0.0107794 6.34977 0.537038 7.62027 1.47378 8.55702L17.9276 25.0092L1.43383 41.503C0.50987 42.4423 -0.00547594 43.7087 4.38886e-05 45.0263C0.00556372 46.3439 0.531502 47.606 1.4633 48.5375C2.39509 49.4691 3.65725 49.9947 4.97484 50C6.29243 50.0052 7.55871 49.4895 8.49784 48.5653L24.99 32.0732L41.4421 48.5254C42.4178 49.501 43.6964 49.9888 44.9733 49.9888C46.2503 49.9888 47.5289 49.501 48.5045 48.5254C48.9685 48.0618 49.3366 47.5114 49.5878 46.9055C49.8389 46.2996 49.9682 45.6501 49.9682 44.9942C49.9682 44.3383 49.8389 43.6889 49.5878 43.083C49.3366 42.477 48.9685 41.9266 48.5045 41.463L32.054 25.0092Z" fill="#DCDFDA"/>
</svg>
