<?xml version="1.0" standalone="no"?>
<!DOCTYPE svg PUBLIC "-//W3C//DTD SVG 20010904//EN"
 "http://www.w3.org/TR/2001/REC-SVG-20010904/DTD/svg10.dtd">
<svg version="1.0" xmlns="http://www.w3.org/2000/svg"
 width="512.000000pt" height="512.000000pt" viewBox="0 0 512.000000 512.000000"
 preserveAspectRatio="xMidYMid meet">

<g transform="translate(0.000000,512.000000) scale(0.100000,-0.100000)"
fill="#000000" stroke="none">
<path d="M930 4308 l0 -813 467 -467 468 -468 -468 -468 -467 -467 0 -813 0
-812 1630 0 1630 0 0 812 0 813 -467 467 -468 468 468 468 467 467 0 813 0
812 -1630 0 -1630 0 0 -812z m3028 -68 l2 -645 -517 -517 -518 -518 518 -518
517 -517 -2 -645 -3 -645 -1395 0 -1395 0 -3 645 -2 645 517 517 518 518 -518
518 -517 517 0 641 c0 352 3 644 7 647 3 4 632 6 1397 5 l1391 -3 3 -645z"/>
<path d="M1400 3952 l0 -237 580 -580 580 -580 580 580 580 580 0 237 0 238
-1160 0 -1160 0 0 -238z"/>
<path d="M1975 931 l-570 -229 -3 -116 -3 -116 1161 0 1161 0 -3 116 -3 116
-560 224 c-308 124 -571 227 -585 229 -17 3 -211 -70 -595 -224z"/>
</g>
</svg>
