<svg width="37" height="36" viewBox="0 0 37 36" fill="none" xmlns="http://www.w3.org/2000/svg">
<g clip-path="url(#clip0_535_671)">
<path d="M36.5 36V34C36.5 32.4087 35.8679 30.8826 34.7426 29.7574C33.6174 28.6321 32.0913 28 30.5 28H14.5C12.9087 28 11.3826 28.6321 10.2574 29.7574C9.13214 30.8826 8.5 32.4087 8.5 34V36H36.5Z" fill="#77B255"/>
<path d="M22.5 34C23.267 34 27.5 31 27.5 28H17.5C17.5 31 21.733 34 22.5 34Z" fill="#3E721D"/>
<path d="M18.1399 28.038C18.1399 30.884 26.8599 31 26.8599 28.038V24.289H18.1399V28.038Z" fill="#FFDC5D"/>
<path d="M18.1321 25.973C19.3481 27.347 20.8561 27.719 22.4961 27.719C24.1351 27.719 25.6431 27.347 26.8601 25.973V22.482H18.1321V25.973Z" fill="#F9CA55"/>
<path d="M25.6521 3.30001C23.7271 2.67701 19.7761 2.84001 18.6441 4.31201C16.7711 4.34801 17.0481 8.02201 13.5311 7.27901C12.7931 8.28301 12.2721 9.47701 12.1071 10.755C11.6591 14.23 12.3421 15.629 12.6981 18.241C13.1011 21.201 14.7651 22.148 16.0951 22.544C18.0091 25.073 20.0441 24.965 23.4611 24.965C30.1331 24.965 32.7321 20.507 33.0131 12.925C33.0931 10.768 32.5401 8.85801 31.4291 7.27601C27.5921 8.76601 28.2161 4.13001 25.6521 3.30001Z" fill="#FFAC33"/>
<path d="M30.0469 13.243C29.4009 12.349 28.5749 11.629 26.7629 11.375C27.4429 11.686 28.6369 13.577 28.7219 14.172C28.8069 14.767 28.8919 15.248 28.3539 14.653C26.1989 12.271 23.3089 12.394 20.9839 10.939C19.3599 9.923 18.8649 8.798 18.8649 8.798C18.8649 8.798 18.6669 10.298 16.2039 11.827C15.4899 12.27 14.6379 13.257 14.1659 14.715C13.8259 15.763 13.9319 16.697 13.9319 18.293C13.9319 22.953 17.7729 26.871 22.5099 26.871C27.2469 26.871 31.0879 22.918 31.0879 18.293C31.0859 15.395 30.7829 14.263 30.0469 13.243Z" fill="#FFDC5D"/>
<path d="M23.4609 20.677H21.5549C21.4284 20.677 21.307 20.6267 21.2176 20.5373C21.1281 20.4478 21.0779 20.3265 21.0779 20.2C21.0779 20.0735 21.1281 19.9522 21.2176 19.8627C21.307 19.7732 21.4284 19.723 21.5549 19.723H23.4609C23.5874 19.723 23.7087 19.7732 23.7982 19.8627C23.8876 19.9522 23.9379 20.0735 23.9379 20.2C23.9379 20.3265 23.8876 20.4478 23.7982 20.5373C23.7087 20.6267 23.5874 20.677 23.4609 20.677Z" fill="#C1694F"/>
<path d="M18.6949 17.341C18.4422 17.341 18.1998 17.2406 18.0211 17.0619C17.8423 16.8831 17.7419 16.6407 17.7419 16.388V15.435C17.7419 15.1822 17.8423 14.9398 18.0211 14.7611C18.1998 14.5824 18.4422 14.482 18.6949 14.482C18.9477 14.482 19.1901 14.5824 19.3688 14.7611C19.5475 14.9398 19.6479 15.1822 19.6479 15.435V16.388C19.6479 16.6407 19.5475 16.8831 19.3688 17.0619C19.1901 17.2406 18.9477 17.341 18.6949 17.341ZM26.3209 17.341C26.0682 17.341 25.8258 17.2406 25.6471 17.0619C25.4683 16.8831 25.3679 16.6407 25.3679 16.388V15.435C25.3679 15.1822 25.4683 14.9398 25.6471 14.7611C25.8258 14.5824 26.0682 14.482 26.3209 14.482C26.5737 14.482 26.8161 14.5824 26.9948 14.7611C27.1735 14.9398 27.2739 15.1822 27.2739 15.435V16.388C27.2739 16.6407 27.1735 16.8831 26.9948 17.0619C26.8161 17.2406 26.5737 17.341 26.3209 17.341Z" fill="#662113"/>
<path d="M22.634 24.657C19.88 24.657 19.034 23.952 18.893 23.809C18.8306 23.7498 18.7805 23.6788 18.7455 23.6003C18.7106 23.5217 18.6914 23.437 18.6892 23.351C18.6847 23.1773 18.7494 23.009 18.869 22.883C18.9886 22.757 19.1533 22.6837 19.327 22.6792C19.5007 22.6747 19.669 22.7394 19.795 22.859C19.847 22.896 20.516 23.346 22.634 23.346C24.834 23.346 25.47 22.861 25.476 22.856C25.5364 22.7961 25.6082 22.7489 25.6871 22.7171C25.7661 22.6854 25.8506 22.6698 25.9356 22.6712C26.0207 22.6726 26.1046 22.691 26.1825 22.7253C26.2603 22.7596 26.3305 22.8091 26.389 22.871C26.5102 22.9981 26.5766 23.1677 26.574 23.3434C26.5714 23.519 26.4999 23.6866 26.375 23.81C26.233 23.952 25.388 24.657 22.634 24.657Z" fill="#C1694F"/>
<path d="M13.5 28H16.5V36H13.5V28ZM28.5 28H31.5V36H28.5V28Z" fill="#3B88C3"/>
<path d="M13.625 35H31.5V36H13.625V35Z" fill="#3B88C3"/>
<path d="M30.5 8.8C30.5 10.12 27.408 11 22.5 11C17.591 11 14.5 10.12 14.5 8.8C14.5 5.253 18.5 0 19.833 0C21.167 0 22.056 1.76 22.5 1.76C22.944 1.76 23.833 0 25.167 0C26.5 0 30.5 5.253 30.5 8.8Z" fill="#C1694F"/>
<path d="M36.4409 8C36.4409 9.657 32.9409 14 22.4409 14C11.9409 14 8.44092 9.657 8.44092 8C8.44092 6.343 15.2609 7 22.4409 7C29.6209 7 36.4409 6.343 36.4409 8Z" fill="#C1694F"/>
<path d="M30.5 8.8C30.5 10.12 27.408 11 22.5 11C17.591 11 14.5 10.12 14.5 8.8C14.5 8.234 14.602 7.625 14.779 7C17.167 9 27.833 9 30.222 7.004C30.397 7.627 30.5 8.235 30.5 8.8Z" fill="#292F33"/>
<path d="M7.5 31.75C7.5 31.4185 7.3683 31.1005 7.13388 30.8661C6.89946 30.6317 6.58152 30.5 6.25 30.5C5.91848 30.5 5.60054 30.6317 5.36612 30.8661C5.1317 31.1005 5 31.4185 5 31.75V36H7.5V31.75Z" fill="#C1694F"/>
<path d="M10.503 22.75C10.503 25.1 8.599 27.003 6.25 27.003C3.901 27.003 1.997 25.1 1.997 22.75C1.997 22.664 0.5 22.666 0.5 22.75C0.5 24.275 1.1058 25.7375 2.18414 26.8159C3.26247 27.8942 4.72501 28.5 6.25 28.5C7.77499 28.5 9.23753 27.8942 10.3159 26.8159C11.3942 25.7375 12 24.275 12 22.75C12 22.666 10.503 22.664 10.503 22.75Z" fill="#66757F"/>
<path d="M2 22.75C2 22.9489 1.92098 23.1397 1.78033 23.2803C1.63968 23.421 1.44891 23.5 1.25 23.5C1.05109 23.5 0.860322 23.421 0.71967 23.2803C0.579018 23.1397 0.5 22.9489 0.5 22.75V14.25C0.5 14.0511 0.579018 13.8603 0.71967 13.7197C0.860322 13.579 1.05109 13.5 1.25 13.5C1.44891 13.5 1.63968 13.579 1.78033 13.7197C1.92098 13.8603 2 14.0511 2 14.25V22.75ZM12 22.75C12 22.9489 11.921 23.1397 11.7803 23.2803C11.6397 23.421 11.4489 23.5 11.25 23.5C11.0511 23.5 10.8603 23.421 10.7197 23.2803C10.579 23.1397 10.5 22.9489 10.5 22.75V14.25C10.5 14.0511 10.579 13.8603 10.7197 13.7197C10.8603 13.579 11.0511 13.5 11.25 13.5C11.4489 13.5 11.6397 13.579 11.7803 13.7197C11.921 13.8603 12 14.0511 12 14.25V22.75ZM7 31C7 31.1989 6.92098 31.3897 6.78033 31.5303C6.63968 31.671 6.44891 31.75 6.25 31.75C6.05109 31.75 5.86032 31.671 5.71967 31.5303C5.57902 31.3897 5.5 31.1989 5.5 31V14.25C5.5 14.0511 5.57902 13.8603 5.71967 13.7197C5.86032 13.579 6.05109 13.5 6.25 13.5C6.44891 13.5 6.63968 13.579 6.78033 13.7197C6.92098 13.8603 7 14.0511 7 14.25V31Z" fill="#66757F"/>
</g>
<defs>
<clipPath id="clip0_535_671">
<rect width="36" height="36" fill="white" transform="translate(0.5)"/>
</clipPath>
</defs>
</svg>
