<svg width="60" height="60" viewBox="0 0 60 60" fill="none" xmlns="http://www.w3.org/2000/svg">
<path d="M53.8649 19.8487C53.1617 19.1457 52.2081 18.7507 51.2137 18.7507C50.2193 18.7507 49.2657 19.1457 48.5624 19.8487L29.9999 38.4112L11.4374 19.8487C10.7302 19.1656 9.78292 18.7876 8.79968 18.7962C7.81644 18.8047 6.8759 19.1991 6.18062 19.8944C5.48533 20.5897 5.09096 21.5302 5.08241 22.5134C5.07387 23.4967 5.45185 24.4439 6.13494 25.1512L27.3487 46.3649C28.0519 47.068 29.0056 47.4629 29.9999 47.4629C30.9943 47.4629 31.948 47.068 32.6512 46.3649L53.8649 25.1512C54.568 24.448 54.9629 23.4943 54.9629 22.4999C54.9629 21.5056 54.568 20.5519 53.8649 19.8487Z" fill="#4B5943"/>
</svg>
