<svg width="28" height="27" viewBox="0 0 28 27" fill="none" xmlns="http://www.w3.org/2000/svg">
<path d="M14.0003 0C15.7684 0 17.4641 0.702379 18.7144 1.95262C19.9646 3.20286 20.667 4.89856 20.667 6.66667C20.667 8.43478 19.9646 10.1305 18.7144 11.3807C17.4641 12.631 15.7684 13.3333 14.0003 13.3333C12.2322 13.3333 10.5365 12.631 9.28628 11.3807C8.03604 10.1305 7.33366 8.43478 7.33366 6.66667C7.33366 4.89856 8.03604 3.20286 9.28628 1.95262C10.5365 0.702379 12.2322 0 14.0003 0ZM14.0003 3.33333C13.1163 3.33333 12.2684 3.68452 11.6433 4.30964C11.0182 4.93476 10.667 5.78261 10.667 6.66667C10.667 7.55072 11.0182 8.39857 11.6433 9.02369C12.2684 9.64881 13.1163 10 14.0003 10C14.8844 10 15.7322 9.64881 16.3573 9.02369C16.9825 8.39857 17.3337 7.55072 17.3337 6.66667C17.3337 5.78261 16.9825 4.93476 16.3573 4.30964C15.7322 3.68452 14.8844 3.33333 14.0003 3.33333ZM14.0003 15C18.4503 15 27.3337 17.2167 27.3337 21.6667V26.6667H0.666992V21.6667C0.666992 17.2167 9.55033 15 14.0003 15ZM14.0003 18.1667C9.05033 18.1667 3.83366 20.6 3.83366 21.6667V23.5H24.167V21.6667C24.167 20.6 18.9503 18.1667 14.0003 18.1667Z" fill="black"/>
</svg>
