<svg xmlns="http://www.w3.org/2000/svg" width="512" height="512" viewBox="0 0 512 512" version="1.1"><path d="M 242.768 20.725 C 244.565 20.947, 247.265 20.943, 248.768 20.715 C 250.271 20.486, 248.800 20.304, 245.500 20.310 C 242.200 20.315, 240.971 20.502, 242.768 20.725 M 265.264 20.718 C 266.784 20.947, 269.034 20.941, 270.264 20.704 C 271.494 20.467, 270.250 20.279, 267.500 20.286 C 264.750 20.294, 263.744 20.488, 265.264 20.718 M 240.885 73.845 C 222.694 78.922, 208.792 90.629, 200.920 107.500 C 199.380 110.800, 197.819 115.185, 197.450 117.245 L 196.779 120.989 201.107 119.462 C 208.162 116.973, 213.087 113.566, 220.500 106.045 C 231.062 95.330, 235.833 94.775, 247.705 102.879 C 261.566 112.340, 291.377 120.983, 310.196 120.996 L 315.892 121 314.334 115.750 C 308.796 97.097, 294.243 81.758, 275.977 75.324 C 265.924 71.782, 250.591 71.136, 240.885 73.845 M 411 78.313 C 411 78.485, 412.462 79.948, 414.250 81.563 L 417.500 84.500 414.563 81.250 C 411.825 78.221, 411 77.540, 411 78.313 M 81.437 97.250 L 78.500 100.500 81.750 97.563 C 83.537 95.948, 85 94.485, 85 94.313 C 85 93.540, 84.175 94.221, 81.437 97.250 M 175.232 126 C 175.232 127.925, 175.438 128.713, 175.689 127.750 C 175.941 126.787, 175.941 125.213, 175.689 124.250 C 175.438 123.287, 175.232 124.075, 175.232 126 M 175.232 139 C 175.232 140.925, 175.438 141.713, 175.689 140.750 C 175.941 139.787, 175.941 138.213, 175.689 137.250 C 175.438 136.287, 175.232 137.075, 175.232 139 M 310.762 141.707 C 312.006 141.946, 313.806 141.937, 314.762 141.687 C 315.718 141.437, 314.700 141.241, 312.500 141.252 C 310.300 141.263, 309.518 141.468, 310.762 141.707 M 231.250 166.689 C 232.213 166.941, 233.787 166.941, 234.750 166.689 C 235.713 166.438, 234.925 166.232, 233 166.232 C 231.075 166.232, 230.287 166.438, 231.250 166.689 M 277.250 166.689 C 278.212 166.941, 279.788 166.941, 280.750 166.689 C 281.712 166.438, 280.925 166.232, 279 166.232 C 277.075 166.232, 276.288 166.438, 277.250 166.689 M 298.462 175.250 L 293.500 180.500 298.750 175.538 C 301.637 172.808, 304 170.446, 304 170.288 C 304 169.541, 303.074 170.372, 298.462 175.250 M 212.500 175 C 214.648 177.200, 216.631 179, 216.906 179 C 217.181 179, 215.648 177.200, 213.500 175 C 211.352 172.800, 209.369 171, 209.094 171 C 208.819 171, 210.352 172.800, 212.500 175 M 312.437 190.250 L 309.500 193.500 312.750 190.563 C 315.779 187.825, 316.460 187, 315.687 187 C 315.515 187, 314.052 188.463, 312.437 190.250 M 238.500 213.701 C 260.876 214.411, 282.002 214.435, 282.001 213.750 C 282.001 213.338, 270.188 213.093, 255.750 213.208 C 241.313 213.322, 233.550 213.544, 238.500 213.701 M 363.500 223 C 366.766 226.300, 369.662 229, 369.937 229 C 370.212 229, 367.766 226.300, 364.500 223 C 361.234 219.700, 358.338 217, 358.063 217 C 357.788 217, 360.234 219.700, 363.500 223 M 146.966 223.750 L 141.500 229.500 147.250 224.034 C 152.592 218.956, 153.458 218, 152.716 218 C 152.560 218, 149.972 220.588, 146.966 223.750 M 288.437 240.250 L 285.500 243.500 288.750 240.563 C 291.779 237.825, 292.460 237, 291.687 237 C 291.515 237, 290.052 238.463, 288.437 240.250 M 491.328 246.500 C 491.333 250.350, 491.513 251.802, 491.730 249.728 C 491.946 247.653, 491.943 244.503, 491.722 242.728 C 491.501 240.952, 491.324 242.650, 491.328 246.500 M 20.328 247.500 C 20.333 251.350, 20.513 252.802, 20.730 250.728 C 20.946 248.653, 20.943 245.503, 20.722 243.728 C 20.501 241.952, 20.324 243.650, 20.328 247.500 M 254.264 253.718 C 255.784 253.947, 258.034 253.941, 259.264 253.704 C 260.494 253.467, 259.250 253.279, 256.500 253.286 C 253.750 253.294, 252.744 253.488, 254.264 253.718 M 20.310 265.500 C 20.315 268.800, 20.502 270.029, 20.725 268.232 C 20.947 266.435, 20.943 263.735, 20.715 262.232 C 20.486 260.729, 20.304 262.200, 20.310 265.500 M 491.310 265.500 C 491.315 268.800, 491.502 270.029, 491.725 268.232 C 491.947 266.435, 491.943 263.735, 491.715 262.232 C 491.486 260.729, 491.304 262.200, 491.310 265.500 M 338.336 278 C 338.336 282.125, 338.513 283.813, 338.728 281.750 C 338.944 279.688, 338.944 276.313, 338.728 274.250 C 338.513 272.188, 338.336 273.875, 338.336 278 M 387.750 327.745 C 392.837 327.927, 401.162 327.927, 406.250 327.745 C 411.337 327.564, 407.175 327.415, 397 327.415 C 386.825 327.415, 382.662 327.564, 387.750 327.745 M 167.449 368.500 C 167.449 387.200, 167.584 394.709, 167.749 385.186 C 167.913 375.663, 167.913 360.363, 167.748 351.186 C 167.583 342.009, 167.449 349.800, 167.449 368.500 M 187.475 362.250 L 187.500 389.500 194.500 389.566 L 201.500 389.631 194.766 389.272 L 188.032 388.913 187.741 361.956 L 187.451 334.999 187.475 362.250 M 99.453 340.250 L 95.500 344.500 99.750 340.547 C 102.088 338.373, 104 336.460, 104 336.297 C 104 335.540, 103.129 336.298, 99.453 340.250 M 215.446 368.500 C 215.447 386.100, 215.583 393.159, 215.749 384.187 C 215.914 375.215, 215.914 360.815, 215.748 352.187 C 215.581 343.559, 215.446 350.900, 215.446 368.500 M 301.448 371 C 301.448 389.425, 301.583 396.962, 301.748 387.750 C 301.913 378.538, 301.913 363.462, 301.748 354.250 C 301.583 345.038, 301.448 352.575, 301.448 371 M 386.437 374 C 386.437 388.575, 386.577 394.538, 386.747 387.250 C 386.918 379.962, 386.918 368.038, 386.747 360.750 C 386.577 353.462, 386.437 359.425, 386.437 374 M 266.185 354.250 L 266 360 274.250 359.799 L 282.500 359.598 274.801 359.258 L 267.102 358.918 266.736 353.709 L 266.370 348.500 266.185 354.250 M 108.272 369 C 108.272 371.475, 108.467 372.488, 108.706 371.250 C 108.944 370.012, 108.944 367.988, 108.706 366.750 C 108.467 365.512, 108.272 366.525, 108.272 369 M 266.406 380.386 C 266.113 381.148, 266.049 383.735, 266.262 386.136 C 266.649 390.484, 266.651 390.481, 266.825 385.290 L 267 380.081 275.250 379.744 L 283.500 379.407 275.219 379.204 C 268.941 379.049, 266.809 379.335, 266.406 380.386 M 126.250 409.716 C 127.763 409.945, 130.238 409.945, 131.750 409.716 C 133.262 409.487, 132.025 409.300, 129 409.300 C 125.975 409.300, 124.737 409.487, 126.250 409.716 M 181.250 409.742 C 184.963 409.934, 191.037 409.934, 194.750 409.742 C 198.463 409.549, 195.425 409.392, 188 409.392 C 180.575 409.392, 177.537 409.549, 181.250 409.742 M 262.250 410.742 C 265.962 410.934, 272.038 410.934, 275.750 410.742 C 279.462 410.549, 276.425 410.392, 269 410.392 C 261.575 410.392, 258.538 410.549, 262.250 410.742 M 79 412.313 C 79 412.485, 80.463 413.948, 82.250 415.563 L 85.500 418.500 82.563 415.250 C 79.825 412.221, 79 411.540, 79 412.313 M 94 427.313 C 94 427.485, 95.463 428.948, 97.250 430.563 L 100.500 433.500 97.563 430.250 C 94.825 427.221, 94 426.540, 94 427.313 M 242.250 491.716 C 243.762 491.945, 246.238 491.945, 247.750 491.716 C 249.262 491.487, 248.025 491.300, 245 491.300 C 241.975 491.300, 240.738 491.487, 242.250 491.716 M 263.250 491.716 C 264.762 491.945, 267.238 491.945, 268.750 491.716 C 270.262 491.487, 269.025 491.300, 266 491.300 C 262.975 491.300, 261.738 491.487, 263.250 491.716" stroke="none" fill="#d1a184" fill-rule="evenodd"/><path d="M 231.946 123.561 C 223.958 131.815, 206.657 140.917, 198.839 140.979 L 196.177 141 197.611 147.147 C 201.236 162.686, 214.501 179.254, 229 186.354 C 246.658 195, 265.297 195.004, 283 186.366 C 297.367 179.356, 310.383 163.331, 314.403 147.706 L 315.742 142.500 310.621 141.851 C 307.804 141.494, 301.225 140.684, 296 140.052 C 278.109 137.887, 256.212 131.127, 242.216 123.448 C 238.759 121.552, 235.810 120, 235.662 120 C 235.514 120, 233.842 121.602, 231.946 123.561 M 229.388 146.980 C 226.216 148.262, 223 152.896, 223 156.185 C 223 164.554, 230.657 169.297, 238.020 165.490 C 245.637 161.551, 244.597 150.079, 236.339 146.939 C 233.420 145.829, 232.219 145.836, 229.388 146.980 M 274.500 147.347 C 267.059 150.688, 266.742 161.747, 273.980 165.490 C 277.755 167.442, 280.516 167.399, 284.010 165.335 C 289.605 162.030, 290.655 154.848, 286.250 150.013 C 283.010 146.457, 278.674 145.473, 274.500 147.347 M 231 214.804 C 231 216.690, 237.064 224.947, 240.213 227.349 C 247.004 232.529, 256.712 234.356, 264.101 231.845 C 271.039 229.487, 278.543 222.322, 280.434 216.250 L 281.135 214 256.067 214 C 242.280 214, 231 214.362, 231 214.804" stroke="none" fill="#ffdcd5" fill-rule="evenodd"/><path d="M 204.075 215.087 C 171.690 221.441, 144.920 248.883, 139.533 281.250 L 138.909 285 155.955 285 L 173 285 173 276.146 C 173 268.171, 173.240 267.033, 175.415 264.686 C 179.746 260.013, 186.024 259.934, 190.586 264.495 C 192.782 266.691, 193 267.725, 193 275.955 L 193 285 255.500 285 L 318 285 318 276.400 C 318 267.892, 318.038 267.762, 321.528 264.272 C 324.699 261.101, 325.466 260.799, 329.106 261.287 C 336.381 262.263, 338.984 266.860, 338.994 278.750 L 339 285 356 285 C 369.543 285, 373 284.727, 373 283.660 C 373 280.020, 368.705 266.271, 365.539 259.779 C 353.988 236.091, 331.223 219.033, 305.250 214.604 C 302.484 214.133, 302 214.347, 302 216.045 C 302 219.412, 297.306 229.816, 293.363 235.187 C 283.628 248.448, 265.183 255.876, 249 253.050 C 231.577 250.008, 216.066 236.349, 211.189 219.753 C 210.260 216.590, 209.275 214.051, 209 214.111 C 208.725 214.170, 206.509 214.610, 204.075 215.087" stroke="none" fill="#a0e5a5" fill-rule="evenodd"/><path d="M 227.500 1.162 C 192.382 5.117, 152.539 18.815, 122 37.434 C 89.968 56.963, 59.223 87.538, 38.471 120.500 C 29.635 134.536, 18.595 158.049, 13.118 174.500 C 3.827 202.403, -0 226.035, 0 255.500 C 0 296.532, 8.516 333.201, 26.475 369.500 C 40.040 396.918, 53.207 415.244, 74.983 437.013 C 116.019 478.037, 167.893 503.307, 225.964 510.564 C 242.591 512.642, 279.055 512.114, 294 509.579 C 334.193 502.761, 366.215 490.282, 398.636 468.801 C 415.742 457.468, 423 450.713, 423 446.128 C 423 441.818, 421.572 439.347, 418.020 437.510 C 412.607 434.711, 409.756 435.523, 400.683 442.446 C 368.274 467.175, 333.569 482.196, 292.939 489.080 C 274.975 492.124, 239.556 492.427, 222.140 489.687 C 170.136 481.502, 125.537 458.872, 88.959 422.109 C 68.009 401.053, 52.842 379.355, 41.434 354.122 C 19.616 305.861, 14.433 252.114, 26.624 200.542 C 46.197 117.741, 112.534 49.815, 195 28.134 C 217.834 22.131, 230.135 20.591, 255.500 20.561 C 272.692 20.540, 281.404 20.983, 290 22.314 C 340.073 30.064, 384.084 51.808, 419.851 86.469 C 433.630 99.821, 442.239 110.110, 452.618 125.627 C 486.785 176.710, 499.298 239.804, 487.423 301.117 C 483.335 322.228, 476.535 341.923, 465.801 363.742 C 459.158 377.246, 458.963 379.208, 463.758 384.250 C 467.498 388.182, 473.068 388.085, 477.135 384.019 C 480.722 380.432, 491.263 358.714, 496.803 343.500 C 503.555 324.954, 511 291.428, 511 279.566 C 511 277.669, 511.450 275.840, 512 275.500 C 512.614 275.120, 513 266.970, 513 254.382 C 513 240.970, 512.654 234.096, 512 234.500 C 511.400 234.871, 511 233.594, 511 231.309 C 511 229.214, 510.087 221.906, 508.971 215.069 C 497.384 144.049, 457.759 82.473, 398.198 42.927 C 363.324 19.772, 324.160 5.439, 283.789 1.055 C 272.350 -0.188, 238.921 -0.124, 227.500 1.162 M 239.500 53.596 C 209.109 60.371, 185.793 82.825, 177.814 113 C 175.020 123.565, 175.063 141.588, 177.907 152.378 C 181.621 166.469, 190.245 181.271, 200.362 190.921 L 203.948 194.342 194.724 196.666 C 176.756 201.192, 160.103 211.010, 146.391 225.162 C 131.567 240.461, 122.752 258.412, 119.460 280 C 117.171 295.015, 117.403 297.603, 121.400 301.600 L 124.800 305 255.450 305 C 398.887 305, 390.361 305.372, 393.003 298.994 C 395.780 292.288, 391.561 267.809, 385.214 253.812 C 380.565 243.559, 373.483 233.282, 365.113 224.643 C 356.128 215.370, 348.474 209.701, 337.449 204.156 C 329.632 200.224, 313.837 195, 309.767 195 C 308.192 195, 309.180 193.492, 314.343 188.019 C 330.762 170.614, 339.028 146.013, 336.058 123.391 C 331.715 90.312, 309.355 64.026, 277.829 54.938 C 267.935 52.086, 249.212 51.431, 239.500 53.596 M 240.885 73.845 C 222.694 78.922, 208.792 90.629, 200.920 107.500 C 199.380 110.800, 197.819 115.185, 197.450 117.245 L 196.779 120.989 201.107 119.462 C 208.162 116.973, 213.087 113.566, 220.500 106.045 C 231.062 95.330, 235.833 94.775, 247.705 102.879 C 261.566 112.340, 291.377 120.983, 310.196 120.996 L 315.892 121 314.334 115.750 C 308.796 97.097, 294.243 81.758, 275.977 75.324 C 265.924 71.782, 250.591 71.136, 240.885 73.845 M 230.500 124.192 C 223.629 130.923, 214.019 136.450, 204.500 139.147 C 200.100 140.394, 196.313 141.545, 196.085 141.705 C 195.857 141.865, 196.452 144.803, 197.406 148.235 C 203.275 169.346, 220.363 186.122, 241.460 191.485 C 249.098 193.427, 262.902 193.427, 270.540 191.485 C 290.507 186.409, 306.458 171.833, 313.182 152.517 C 317.265 140.790, 317.628 141.401, 306.160 140.703 C 284.103 139.359, 251.286 129.749, 239.084 121.059 C 237.493 119.927, 236.036 119.066, 235.846 119.147 C 235.656 119.228, 233.250 121.499, 230.500 124.192 M 226.495 149.414 C 223.342 152.567, 222.473 156.313, 224.025 160.059 C 226.801 166.763, 234.937 168.217, 240.202 162.952 C 242.904 160.250, 243.186 159.427, 242.687 155.703 C 241.947 150.183, 238.367 147, 232.899 147 C 230.014 147, 228.240 147.669, 226.495 149.414 M 271.923 149.923 C 268.092 153.754, 267.967 158.619, 271.589 162.923 C 273.721 165.457, 274.917 166, 278.366 166 C 285.876 166, 290.273 160.387, 288.046 153.641 C 285.726 146.609, 277.202 144.644, 271.923 149.923 M 231.091 215.739 C 233.884 223.086, 239.229 228.526, 246.734 231.662 C 251.478 233.644, 261.396 233.596, 266.213 231.568 C 272.850 228.773, 279.521 221.630, 281.453 215.250 L 282.135 213 256.092 213 L 230.050 213 231.091 215.739 M 199.500 215.951 C 172.463 223.063, 151.322 242.832, 142.232 269.500 C 141.107 272.800, 139.869 277.637, 139.480 280.250 L 138.773 285 155.886 285 L 173 285 173 276.516 C 173 268.568, 173.183 267.826, 175.898 264.789 C 178.296 262.105, 179.520 261.545, 183 261.545 C 186.480 261.545, 187.704 262.105, 190.102 264.789 C 192.817 267.826, 193 268.568, 193 276.516 L 193 285 255.401 285 L 317.801 285 318.151 276.079 C 318.452 268.371, 318.819 266.819, 320.845 264.664 C 323.850 261.466, 327.321 260.621, 331.618 262.039 C 336.457 263.636, 338 267.241, 338 276.950 L 338 285 355.500 285 L 373 285 373 282.730 C 373 278.775, 369.065 266.074, 365.857 259.671 C 357.178 242.353, 342.946 228.384, 326.281 220.828 C 320.323 218.127, 306.530 214, 303.459 214 C 302.787 214, 301.714 216.080, 301.073 218.623 C 297.055 234.581, 282.765 248.539, 266.872 252.028 C 263.655 252.734, 257.577 253.071, 252.684 252.814 C 245.318 252.428, 243.065 251.842, 236.539 248.617 C 223.852 242.346, 214.577 231.282, 211.061 218.225 C 209.748 213.351, 209.540 213.310, 199.500 215.951 M 0.423 255.500 C 0.424 267.050, 0.570 271.638, 0.747 265.696 C 0.924 259.753, 0.923 250.303, 0.745 244.696 C 0.567 239.088, 0.422 243.950, 0.423 255.500 M 117 329.811 C 109.334 332.366, 107.314 333.590, 101.165 339.405 C 80.432 359.011, 85.888 393.053, 111.725 405.291 C 118.018 408.272, 119.247 408.499, 129 408.492 C 138.109 408.485, 140.155 408.161, 144.441 406.042 C 147.159 404.699, 151.321 401.742, 153.691 399.471 C 157.446 395.874, 158 394.796, 158 391.094 C 158 387.732, 157.390 386.236, 155.077 383.923 C 151.122 379.968, 146.287 379.943, 141.785 383.853 C 136.865 388.127, 134.202 389.231, 128.812 389.231 C 111.446 389.231, 101.818 368.388, 113.197 355.428 C 119.972 347.712, 129.990 345.844, 139.500 350.522 C 145.337 353.393, 147.059 353.538, 151.020 351.490 C 154.646 349.614, 156 347.176, 156 342.520 C 156 337.974, 152.985 334.798, 145.351 331.303 C 137.764 327.830, 124.966 327.156, 117 329.811 M 170.923 330.923 L 168 333.846 168 368.834 L 168 403.822 171.077 406.411 C 174.074 408.933, 174.523 409, 188.521 409 C 201.982 409, 203.054 408.858, 205.506 406.748 C 209.440 403.365, 209.986 397.259, 206.697 393.431 C 204.375 390.727, 203.533 390.461, 195.840 390 L 187.500 389.500 187 361.162 L 186.500 332.824 183.694 330.412 C 179.681 326.962, 174.684 327.162, 170.923 330.923 M 219.306 330.412 L 216.500 332.825 216.213 367.952 L 215.926 403.080 218.886 406.040 C 223.995 411.149, 231.914 409.844, 234.585 403.452 C 236.756 398.254, 236.642 338.155, 234.452 333.540 C 231.700 327.740, 224.212 326.194, 219.306 330.412 M 372.923 330.923 C 368.967 334.879, 368.933 339.775, 372.832 344.138 C 375.230 346.822, 376.532 347.380, 381.332 347.778 L 387 348.248 387 375.701 L 387 403.154 389.923 406.077 C 393.072 409.226, 398.251 410.006, 402.150 407.920 C 406.432 405.628, 407 401.676, 407 374.159 L 407 348.254 412.074 347.767 C 420.969 346.912, 425.815 340.796, 422.994 333.986 C 420.739 328.542, 418.295 328, 395.973 328 L 375.846 328 372.923 330.923 M 252.500 329.945 C 251.400 330.396, 249.600 331.764, 248.500 332.987 C 246.582 335.119, 246.500 336.618, 246.500 369.687 L 246.500 404.164 249.766 407.082 L 253.032 410 268.565 410 C 285.857 410, 288.840 409.216, 290.953 404.113 C 292.553 400.250, 291.545 395.861, 288.370 392.876 C 286.125 390.765, 284.733 390.462, 275.873 390.155 L 265.902 389.810 266.201 384.655 L 266.500 379.500 275.727 379 C 287.076 378.385, 289.500 376.693, 289.500 369.386 C 289.500 365.631, 289.005 364.401, 286.694 362.413 C 284.181 360.251, 282.957 360, 274.944 360 L 266 360 266 354.500 L 266 349 275.600 349 C 285.184 349, 285.206 348.994, 288.600 345.600 C 291.050 343.150, 292 341.306, 292 339 C 292 336.694, 291.050 334.850, 288.600 332.400 L 285.200 329 269.850 329.063 C 261.408 329.098, 253.600 329.495, 252.500 329.945 M 304.923 332.923 L 302 335.846 302 370.500 L 302 405.154 304.923 408.077 C 309.533 412.687, 315.672 412.085, 320 406.598 C 321.136 405.158, 321.621 400.828, 322 388.772 L 322.500 372.847 332.816 387.964 C 338.489 396.278, 344.471 404.606, 346.108 406.470 C 349.834 410.714, 353.762 411.681, 358.376 409.492 C 364.756 406.464, 365 404.997, 365 369.646 C 365 347.313, 364.651 337.328, 363.805 335.472 C 361.286 329.943, 353.067 328.319, 348.306 332.411 L 345.500 334.822 345 352.486 L 344.500 370.150 332.037 351.980 C 325.182 341.987, 318.484 332.953, 317.152 331.905 C 313.470 329.008, 308.417 329.429, 304.923 332.923 M 440.357 404.992 C 435.377 407.001, 433.616 413.423, 436.510 419.020 C 438.389 422.653, 440.824 424, 445.511 424 C 452.625 424, 457.441 415.430, 453.970 408.945 C 451.841 404.967, 445.199 403.038, 440.357 404.992" stroke="none" fill="#000000" fill-rule="evenodd"/><path d="M 239.787 21.083 C 183.974 24.862, 130.417 48.952, 91.128 87.951 C 52.456 126.337, 28.569 174.887, 21.990 228.472 C 20.508 240.543, 20.507 269.071, 21.989 282 C 30.041 352.278, 68.178 414.322, 127.109 453.018 C 209.536 507.143, 317.700 503.834, 396.796 444.769 C 402.683 440.373, 408.607 436.351, 409.961 435.832 C 412.882 434.713, 416.804 435.529, 419.296 437.775 C 420.982 439.294, 421.610 438.875, 429.557 430.929 L 438.021 422.464 436.033 418.566 C 433.675 413.940, 434.168 410.671, 437.816 406.750 C 439.758 404.662, 441.308 404, 444.253 404 C 446.386 404, 448.935 404.430, 449.916 404.955 C 451.405 405.752, 452.438 404.880, 456.139 399.705 C 463.382 389.577, 465.544 385.681, 464.175 385.225 C 462.469 384.656, 460 379.579, 460 376.641 C 460 375.289, 462.432 369.439, 465.404 363.642 C 512.041 272.683, 494.551 160.830, 422.537 89.500 C 381.232 48.587, 329.546 25.151, 271.500 21.015 C 256.274 19.930, 256.823 19.929, 239.787 21.083 M 247.273 52.062 C 228.297 53.976, 211.370 62.504, 197.446 77.166 C 186.027 89.189, 179.479 101.850, 176.409 117.838 C 171.630 142.725, 179.695 169.787, 197.406 188.291 C 200.456 191.479, 202.398 194.228, 201.724 194.406 C 175.883 201.234, 162.902 208.115, 147.900 222.940 C 129.725 240.900, 118.053 267.609, 118.013 291.327 C 118.001 298.653, 118.187 299.341, 120.923 302.077 L 123.846 305 256 305 L 388.154 305 391.214 301.940 L 394.274 298.880 393.730 287.690 C 392.276 257.744, 375.453 228.285, 349.893 210.927 C 339.211 203.673, 327.500 198.788, 310.375 194.444 C 309.756 194.287, 311.515 191.760, 314.284 188.829 C 330.202 171.981, 337.822 151.529, 336.742 128.552 C 334.560 82.125, 293.896 47.361, 247.273 52.062 M 122 328.115 C 97.944 332.139, 82.225 358.046, 89.963 380.917 C 99.261 408.401, 132.601 419.013, 152.504 400.823 C 158.823 395.047, 160.153 391.130, 157.522 386.043 C 154.244 379.704, 145.287 378.710, 140.373 384.140 C 135.919 389.062, 128.257 390.387, 121.232 387.452 C 113.264 384.123, 109 377.395, 109 368.153 C 109 356.920, 117.569 348.500, 129 348.500 C 132.769 348.500, 135.848 349.208, 138.781 350.750 C 144.753 353.889, 149.197 353.689, 153.211 350.102 C 155.894 347.705, 156.455 346.479, 156.455 343.005 C 156.455 339.467, 155.892 338.289, 152.885 335.533 C 146.191 329.399, 133.109 326.257, 122 328.115 M 174.212 328.203 C 172.140 328.754, 170.200 330.265, 168.966 332.288 C 167.127 335.304, 167.007 337.497, 167.004 368.300 C 167 404.310, 167.174 405.487, 172.967 408.483 C 176.342 410.228, 198.140 410.658, 202.339 409.061 C 206.521 407.471, 209 404.004, 209 399.746 C 209 392.018, 204.941 389, 194.550 389 L 188 389 187.996 362.250 C 187.993 337.347, 187.856 335.276, 186.011 332.250 C 184.921 330.462, 183.907 329, 183.758 329 C 183.609 329, 182.140 328.624, 180.493 328.164 C 178.847 327.704, 176.020 327.722, 174.212 328.203 M 223.327 327.696 C 220.196 328.306, 216.345 332.526, 215.622 336.139 C 214.549 341.505, 214.930 398.208, 216.067 402.302 C 218.256 410.184, 227.661 412.219, 233.250 406.019 L 236 402.968 236 368.707 C 236 330.715, 236.077 331.183, 229.401 328.394 C 227.566 327.627, 225.937 327.061, 225.782 327.136 C 225.627 327.211, 224.522 327.463, 223.327 327.696 M 377.327 327.696 C 374.505 328.245, 370.341 332.437, 369.798 335.275 C 368.440 342.380, 373.447 348, 381.135 348 L 386 348 386.006 373.250 C 386.009 387.887, 386.455 400.098, 387.067 402.302 C 389.256 410.184, 398.661 412.219, 404.250 406.019 L 407 402.968 407 375.484 L 407 348 411.566 348 C 416.690 348, 419.684 346.774, 422.228 343.633 C 424.418 340.929, 424.489 335.143, 422.369 332.117 C 419.305 327.742, 415.436 326.989, 396.782 327.136 C 387.277 327.211, 378.522 327.463, 377.327 327.696 M 249.306 331.412 L 246.500 333.825 246.214 368.731 C 245.934 402.803, 245.977 403.701, 248.009 406.285 C 249.154 407.740, 251.758 409.394, 253.795 409.960 C 258.590 411.291, 279.410 411.291, 284.205 409.960 C 292.093 407.769, 294.724 398.570, 289.077 392.923 C 286.253 390.099, 285.829 390, 276.577 390 L 267 390 267 385 L 267 380 274.550 380 C 286.017 380, 290 377.230, 290 369.254 C 290 362.109, 285.129 359, 273.935 359 L 267 359 267 354 L 267 349 276.577 349 C 285.829 349, 286.253 348.901, 289.077 346.077 C 291.369 343.784, 292 342.258, 292 339 C 292 335.742, 291.369 334.216, 289.077 331.923 L 286.154 329 269.133 329 C 252.584 329, 252.034 329.067, 249.306 331.412 M 310 329.727 C 306.068 330.826, 303.575 332.777, 302.345 335.718 C 301.312 338.189, 301.001 346.426, 301.004 371.218 C 301.007 401.037, 301.151 403.735, 302.885 406.580 C 305.082 410.182, 309.921 412.488, 313.433 411.606 C 314.793 411.265, 317.164 409.904, 318.703 408.582 L 321.500 406.178 322 389.951 L 322.500 373.724 334.222 390.717 C 340.669 400.062, 346.632 408.280, 347.473 408.977 C 348.313 409.675, 351.014 410.473, 353.474 410.750 C 357.564 411.211, 358.247 410.953, 361.473 407.727 L 365 404.200 365 370.235 C 365 337.696, 364.915 336.162, 362.984 333.707 C 358.792 328.377, 351.953 328.148, 347.275 333.182 C 345.185 335.431, 345.034 336.591, 344.775 352.408 L 344.500 369.240 331.597 350.584 C 324.500 340.324, 318.298 331.684, 317.814 331.385 C 316.045 330.292, 311.460 329.319, 310 329.727" stroke="none" fill="#f3e76d" fill-rule="evenodd"/></svg>