<svg width="37" height="36" viewBox="0 0 37 36" fill="none" xmlns="http://www.w3.org/2000/svg">
<g id="fermier" clip-path="url(#clip0_162_1365)">
<path id="Vector" d="M36.5 36V34C36.5 32.4087 35.8679 30.8826 34.7426 29.7574C33.6174 28.6321 32.0913 28 30.5 28H14.5C12.9087 28 11.3826 28.6321 10.2574 29.7574C9.13214 30.8826 8.5 32.4087 8.5 34V36H36.5Z" fill="#77B255"/>
<path id="Vector_2" d="M22.5 34C23.267 34 27.5 31 27.5 28H17.5C17.5 31 21.733 34 22.5 34Z" fill="#3E721D"/>
<path id="Vector_3" d="M18.14 28.0381C18.14 30.8841 26.86 31.0001 26.86 28.0381V24.2891H18.14V28.0381Z" fill="#FFDC5D"/>
<path id="Vector_4" d="M18.132 25.9729C19.348 27.3469 20.856 27.7189 22.496 27.7189C24.135 27.7189 25.643 27.3469 26.86 25.9729V22.4819H18.132V25.9729Z" fill="#F9CA55"/>
<path id="Vector_5" d="M25.652 3.29996C23.727 2.67696 19.776 2.83996 18.644 4.31196C16.771 4.34796 17.048 8.02196 13.531 7.27896C12.793 8.28296 12.272 9.47696 12.107 10.755C11.659 14.23 12.342 15.629 12.698 18.241C13.101 21.201 14.765 22.148 16.095 22.544C18.009 25.073 20.044 24.965 23.461 24.965C30.133 24.965 32.732 20.507 33.013 12.925C33.093 10.768 32.54 8.85796 31.429 7.27596C27.592 8.76596 28.216 4.12996 25.652 3.29996Z" fill="#FFAC33"/>
<path id="Vector_6" d="M30.047 13.2431C29.401 12.3491 28.575 11.6291 26.763 11.3751C27.443 11.6861 28.637 13.5771 28.722 14.1721C28.807 14.7671 28.892 15.2481 28.354 14.6531C26.199 12.2711 23.309 12.3941 20.984 10.9391C19.36 9.9231 18.865 8.7981 18.865 8.7981C18.865 8.7981 18.667 10.2981 16.204 11.8271C15.49 12.2701 14.638 13.2571 14.166 14.7151C13.826 15.7631 13.932 16.6971 13.932 18.2931C13.932 22.9531 17.773 26.8711 22.51 26.8711C27.247 26.8711 31.088 22.9181 31.088 18.2931C31.086 15.3951 30.783 14.2631 30.047 13.2431Z" fill="#FFDC5D"/>
<path id="Vector_7" d="M23.461 20.6769H21.555C21.4285 20.6769 21.3072 20.6266 21.2177 20.5372C21.1283 20.4477 21.078 20.3264 21.078 20.1999C21.078 20.0734 21.1283 19.9521 21.2177 19.8626C21.3072 19.7732 21.4285 19.7229 21.555 19.7229H23.461C23.5875 19.7229 23.7088 19.7732 23.7983 19.8626C23.8877 19.9521 23.938 20.0734 23.938 20.1999C23.938 20.3264 23.8877 20.4477 23.7983 20.5372C23.7088 20.6266 23.5875 20.6769 23.461 20.6769Z" fill="#C1694F"/>
<path id="Vector_8" d="M18.695 17.3409C18.4423 17.3409 18.1999 17.2405 18.0211 17.0618C17.8424 16.8831 17.742 16.6407 17.742 16.3879V15.4349C17.742 15.1822 17.8424 14.9398 18.0211 14.7611C18.1999 14.5823 18.4423 14.4819 18.695 14.4819C18.9478 14.4819 19.1902 14.5823 19.3689 14.7611C19.5476 14.9398 19.648 15.1822 19.648 15.4349V16.3879C19.648 16.6407 19.5476 16.8831 19.3689 17.0618C19.1902 17.2405 18.9478 17.3409 18.695 17.3409ZM26.321 17.3409C26.0683 17.3409 25.8259 17.2405 25.6471 17.0618C25.4684 16.8831 25.368 16.6407 25.368 16.3879V15.4349C25.368 15.1822 25.4684 14.9398 25.6471 14.7611C25.8259 14.5823 26.0683 14.4819 26.321 14.4819C26.5738 14.4819 26.8162 14.5823 26.9949 14.7611C27.1736 14.9398 27.274 15.1822 27.274 15.4349V16.3879C27.274 16.6407 27.1736 16.8831 26.9949 17.0618C26.8162 17.2405 26.5738 17.3409 26.321 17.3409Z" fill="#662113"/>
<path id="Vector_9" d="M22.634 24.6571C19.88 24.6571 19.034 23.9521 18.893 23.8091C18.8306 23.7498 18.7805 23.6789 18.7456 23.6003C18.7106 23.5217 18.6915 23.437 18.6892 23.351C18.6847 23.1774 18.7494 23.009 18.869 22.8831C18.9886 22.7571 19.1534 22.6838 19.3271 22.6793C19.5007 22.6748 19.669 22.7394 19.795 22.8591C19.847 22.8961 20.516 23.3461 22.634 23.3461C24.834 23.3461 25.47 22.8611 25.476 22.8561C25.5364 22.7962 25.6082 22.7489 25.6872 22.7172C25.7661 22.6855 25.8506 22.6698 25.9357 22.6712C26.0208 22.6726 26.1047 22.691 26.1825 22.7253C26.2604 22.7597 26.3306 22.8092 26.389 22.8711C26.5102 22.9982 26.5767 23.1678 26.5741 23.3434C26.5715 23.519 26.5 23.6866 26.375 23.8101C26.233 23.9521 25.388 24.6571 22.634 24.6571Z" fill="#C1694F"/>
<path id="Vector_10" d="M13.5 28H16.5V36H13.5V28ZM28.5 28H31.5V36H28.5V28Z" fill="#3B88C3"/>
<path id="Vector_11" d="M13.625 35H31.5V36H13.625V35Z" fill="#3B88C3"/>
<path id="Vector_12" d="M30.5 8.8C30.5 10.12 27.408 11 22.5 11C17.591 11 14.5 10.12 14.5 8.8C14.5 5.253 18.5 0 19.833 0C21.167 0 22.056 1.76 22.5 1.76C22.944 1.76 23.833 0 25.167 0C26.5 0 30.5 5.253 30.5 8.8Z" fill="#C1694F"/>
<path id="Vector_13" d="M36.441 8.0001C36.441 9.6571 32.941 14.0001 22.441 14.0001C11.941 14.0001 8.44098 9.6571 8.44098 8.0001C8.44098 6.3431 15.261 7.0001 22.441 7.0001C29.621 7.0001 36.441 6.3431 36.441 8.0001Z" fill="#C1694F"/>
<path id="Vector_14" d="M30.5 8.8C30.5 10.12 27.408 11 22.5 11C17.591 11 14.5 10.12 14.5 8.8C14.5 8.234 14.602 7.625 14.779 7C17.167 9 27.833 9 30.222 7.004C30.397 7.627 30.5 8.235 30.5 8.8Z" fill="#292F33"/>
<path id="Vector_15" d="M7.5 31.75C7.5 31.4185 7.3683 31.1005 7.13388 30.8661C6.89946 30.6317 6.58152 30.5 6.25 30.5C5.91848 30.5 5.60054 30.6317 5.36612 30.8661C5.1317 31.1005 5 31.4185 5 31.75V36H7.5V31.75Z" fill="#C1694F"/>
<path id="Vector_16" d="M10.503 22.75C10.503 25.1 8.599 27.003 6.25 27.003C3.901 27.003 1.997 25.1 1.997 22.75C1.997 22.664 0.5 22.666 0.5 22.75C0.5 24.275 1.1058 25.7376 2.18414 26.8159C3.26247 27.8942 4.72501 28.5 6.25 28.5C7.77499 28.5 9.23753 27.8942 10.3159 26.8159C11.3942 25.7376 12 24.275 12 22.75C12 22.666 10.503 22.664 10.503 22.75Z" fill="#66757F"/>
<path id="Vector_17" d="M2 22.75C2 22.9489 1.92098 23.1397 1.78033 23.2803C1.63968 23.421 1.44891 23.5 1.25 23.5C1.05109 23.5 0.860322 23.421 0.71967 23.2803C0.579018 23.1397 0.5 22.9489 0.5 22.75V14.25C0.5 14.0511 0.579018 13.8603 0.71967 13.7197C0.860322 13.579 1.05109 13.5 1.25 13.5C1.44891 13.5 1.63968 13.579 1.78033 13.7197C1.92098 13.8603 2 14.0511 2 14.25V22.75ZM12 22.75C12 22.9489 11.921 23.1397 11.7803 23.2803C11.6397 23.421 11.4489 23.5 11.25 23.5C11.0511 23.5 10.8603 23.421 10.7197 23.2803C10.579 23.1397 10.5 22.9489 10.5 22.75V14.25C10.5 14.0511 10.579 13.8603 10.7197 13.7197C10.8603 13.579 11.0511 13.5 11.25 13.5C11.4489 13.5 11.6397 13.579 11.7803 13.7197C11.921 13.8603 12 14.0511 12 14.25V22.75ZM7 31C7 31.1989 6.92098 31.3897 6.78033 31.5303C6.63968 31.671 6.44891 31.75 6.25 31.75C6.05109 31.75 5.86032 31.671 5.71967 31.5303C5.57902 31.3897 5.5 31.1989 5.5 31V14.25C5.5 14.0511 5.57902 13.8603 5.71967 13.7197C5.86032 13.579 6.05109 13.5 6.25 13.5C6.44891 13.5 6.63968 13.579 6.78033 13.7197C6.92098 13.8603 7 14.0511 7 14.25V31Z" fill="#66757F"/>
</g>
<defs>
<clipPath id="clip0_162_1365">
<rect width="36" height="36" fill="white" transform="translate(0.5)"/>
</clipPath>
</defs>
</svg>
