<?xml version="1.0" standalone="no"?>
<!DOCTYPE svg PUBLIC "-//W3C//DTD SVG 20010904//EN"
 "http://www.w3.org/TR/2001/REC-SVG-20010904/DTD/svg10.dtd">
<svg version="1.0" xmlns="http://www.w3.org/2000/svg"
 width="626.000000pt" height="501.000000pt" viewBox="0 0 626.000000 501.000000"
 preserveAspectRatio="xMidYMid meet">

<g transform="translate(0.000000,501.000000) scale(0.100000,-0.100000)"
fill="#000000" stroke="none">
<path d="M2897 4455 c-481 -61 -929 -295 -1238 -648 -227 -259 -382 -572 -454
-917 -32 -153 -45 -446 -26 -606 75 -640 444 -1191 1006 -1501 199 -110 395
-177 640 -219 143 -25 461 -25 609 -1 423 71 783 255 1082 552 251 249 426
554 512 890 51 202 57 252 57 505 0 273 -16 379 -91 609 -202 618 -698 1094
-1329 1276 -224 65 -541 89 -768 60z m553 -499 c173 -40 363 -119 479 -199
l43 -30 -1033 -1033 -1034 -1034 -33 53 c-168 262 -251 605 -222 917 34 370
195 704 460 953 238 224 500 347 855 401 17 2 109 3 205 1 142 -3 195 -8 280
-29z m941 -663 c89 -140 173 -361 204 -538 24 -134 24 -366 0 -500 -125 -714
-741 -1235 -1462 -1235 -203 0 -374 33 -565 110 -80 32 -248 121 -278 147 -5
5 2052 2063 2063 2063 4 0 21 -21 38 -47z"/>
</g>
</svg>
