<svg width="40" height="40" viewBox="0 0 40 40" fill="none" xmlns="http://www.w3.org/2000/svg">
<g id="Group 24">
<path id="Vector" d="M9.33333 21.3334H8V18.6667H9.33333C9.68696 18.6667 10.0261 18.8072 10.2761 19.0573C10.5262 19.3073 10.6667 19.6465 10.6667 20.0001C10.6667 20.3537 10.5262 20.6928 10.2761 20.9429C10.0261 21.1929 9.68696 21.3334 9.33333 21.3334ZM18.6667 26.6667V18.6667H20C20.3536 18.6667 20.6928 18.8072 20.9428 19.0573C21.1929 19.3073 21.3333 19.6465 21.3333 20.0001V25.3334C21.3333 25.687 21.1929 26.0262 20.9428 26.2762C20.6928 26.5263 20.3536 26.6667 20 26.6667H18.6667Z" fill="black"/>
<path id="Vector_2" fill-rule="evenodd" clip-rule="evenodd" d="M0 4C0 2.93913 0.486263 1.92172 1.35181 1.17157C2.21737 0.421427 3.39131 0 4.61538 0L29.8677 0L40 8.78133V36C40 37.0609 39.5137 38.0783 38.6482 38.8284C37.7826 39.5786 36.6087 40 35.3846 40H4.61538C3.39131 40 2.21737 39.5786 1.35181 38.8284C0.486263 38.0783 0 37.0609 0 36V4ZM7.69231 16H3.07692V29.3333H6.15385V24H7.69231C8.91638 24 10.0903 23.5786 10.9559 22.8284C11.8214 22.0783 12.3077 21.0609 12.3077 20C12.3077 18.9391 11.8214 17.9217 10.9559 17.1716C10.0903 16.4214 8.91638 16 7.69231 16ZM20 16H15.3846V29.3333H20C21.2241 29.3333 22.398 28.9119 23.2636 28.1618C24.1291 27.4116 24.6154 26.3942 24.6154 25.3333V20C24.6154 18.9391 24.1291 17.9217 23.2636 17.1716C22.398 16.4214 21.2241 16 20 16ZM27.6923 29.3333V16H36.9231V18.6667H30.7692V21.3333H33.8462V24H30.7692V29.3333H27.6923Z" fill="black"/>
</g>
</svg>
