<svg width="54" height="54" viewBox="0 0 54 54" fill="none" xmlns="http://www.w3.org/2000/svg">
<g id="carbon:fruit-bowl">
<path id="Vector" d="M43.875 25.3125C43.8734 23.5011 43.3862 21.7233 42.464 20.1643C41.5419 18.6052 40.2186 17.3219 38.6319 16.4481C39.8278 15.2007 40.4968 13.5405 40.5 11.8125H37.125C37.1241 12.7073 36.7682 13.5653 36.1355 14.198C35.5028 14.8307 34.6448 15.1866 33.75 15.1875C31.0979 15.191 28.553 16.2342 26.6615 18.0932C24.7701 19.9522 23.6829 22.4787 23.6334 25.1303C21.4699 22.9266 20.2553 19.9632 20.25 16.875C20.2456 15.3826 19.7462 13.9338 18.83 12.7557C17.9139 11.5775 16.6328 10.7366 15.1875 10.3646V6.75H11.8125V10.3646C10.3672 10.7366 9.0861 11.5775 8.16998 12.7557C7.25385 13.9338 6.75444 15.3826 6.75 16.875V25.3125H3.375V27C3.375 33.2657 5.86406 39.2748 10.2946 43.7054C14.7251 48.1359 20.7343 50.625 27 50.625C33.2657 50.625 39.2748 48.1359 43.7054 43.7054C48.1359 39.2748 50.625 33.2657 50.625 27V25.3125H43.875ZM33.75 18.5625C35.5395 18.5647 37.2551 19.2766 38.5205 20.542C39.7859 21.8074 40.4978 23.523 40.5 25.3125H27C27.0022 23.523 27.7141 21.8074 28.9795 20.542C30.2449 19.2766 31.9605 18.5647 33.75 18.5625ZM10.125 16.875C10.125 15.9799 10.4806 15.1215 11.1135 14.4885C11.7464 13.8556 12.6049 13.5 13.5 13.5C14.3951 13.5 15.2535 13.8556 15.8865 14.4885C16.5194 15.1215 16.875 15.9799 16.875 16.875C16.8817 19.8815 17.7815 22.8183 19.4602 25.3125H10.125V16.875ZM27 47.25C21.9232 47.2437 17.0334 45.3334 13.2968 41.8965C9.5603 38.4596 7.24884 33.7461 6.81919 28.6875H47.1825C46.7528 33.7464 44.4411 38.4601 40.7042 41.897C36.9673 45.334 32.0771 47.2441 27 47.25Z" fill="black"/>
</g>
</svg>
