<svg width="51" height="52" viewBox="0 0 51 52" fill="none" xmlns="http://www.w3.org/2000/svg">
<path id="Vector" d="M51 11.5556V46.2222C51 47.8111 50.4447 49.1718 49.334 50.3042C48.2233 51.4367 46.8898 52.0019 45.3333 52H5.66667C4.10834 52 2.77384 51.4338 1.66317 50.3013C0.552504 49.1689 -0.00188408 47.8092 4.81041e-06 46.2222V5.77778C4.81041e-06 4.18889 0.555338 2.82823 1.666 1.69578C2.77667 0.563338 4.11023 -0.00192102 5.66667 4.90474e-06H39.6667L51 11.5556ZM25.5 43.3333C27.8611 43.3333 29.8681 42.4907 31.5208 40.8056C33.1736 39.1204 34 37.0741 34 34.6667C34 32.2593 33.1736 30.213 31.5208 28.5278C29.8681 26.8426 27.8611 26 25.5 26C23.1389 26 21.1319 26.8426 19.4792 28.5278C17.8264 30.213 17 32.2593 17 34.6667C17 37.0741 17.8264 39.1204 19.4792 40.8056C21.1319 42.4907 23.1389 43.3333 25.5 43.3333ZM8.5 20.2222H34V8.66667H8.5V20.2222Z" fill="#DCDFDA"/>
</svg>
