<?xml version="1.0" standalone="no"?>
<!DOCTYPE svg PUBLIC "-//W3C//DTD SVG 20010904//EN"
 "http://www.w3.org/TR/2001/REC-SVG-20010904/DTD/svg10.dtd">
<svg version="1.0" xmlns="http://www.w3.org/2000/svg"
 width="612.000000pt" height="612.000000pt" viewBox="0 0 612.000000 612.000000"
 preserveAspectRatio="xMidYMid meet">

<g transform="translate(0.000000,612.000000) scale(0.100000,-0.100000)"
fill="#000000" stroke="none">
<path d="M2905 5414 c-347 -35 -582 -98 -853 -225 -683 -320 -1183 -976 -1312
-1717 -118 -677 56 -1351 487 -1892 468 -587 1242 -927 1982 -871 593 44 1107
277 1516 686 643 642 857 1579 560 2446 -77 222 -240 515 -393 702 -376 459
-898 758 -1479 847 -132 20 -416 33 -508 24z m409 -409 c614 -81 1150 -444
1458 -990 258 -456 318 -1018 164 -1527 -47 -153 -118 -311 -198 -442 -379
-613 -1031 -968 -1738 -943 -239 8 -435 46 -630 121 -770 298 -1270 1020
-1270 1836 0 871 583 1645 1418 1884 104 30 252 59 352 69 96 10 341 5 444 -8z"/>
<path d="M2968 4400 c-48 -26 -84 -73 -98 -130 -8 -31 -10 -219 -8 -620 3
-505 5 -579 19 -604 21 -38 876 -894 911 -912 56 -29 113 -29 173 0 90 44 131
136 105 233 -12 44 -46 81 -411 448 l-398 400 -3 537 -3 536 -30 44 c-17 23
-49 53 -70 65 -52 29 -135 30 -187 3z"/>
</g>
</svg>
