<?xml version="1.0" standalone="no"?>
<!DOCTYPE svg PUBLIC "-//W3C//DTD SVG 20010904//EN"
 "http://www.w3.org/TR/2001/REC-SVG-20010904/DTD/svg10.dtd">
<svg version="1.0" xmlns="http://www.w3.org/2000/svg"
 width="512.000000pt" height="512.000000pt" viewBox="0 0 512.000000 512.000000"
 preserveAspectRatio="xMidYMid meet">

<g transform="translate(0.000000,512.000000) scale(0.100000,-0.100000)"
fill="#000000" stroke="none">
<path d="M2332 5100 c-789 -77 -1478 -490 -1917 -1150 -86 -130 -205 -366
-260 -514 -48 -130 -108 -370 -131 -521 -26 -168 -26 -542 0 -710 129 -853
651 -1564 1421 -1936 230 -111 453 -182 695 -223 403 -67 836 -34 1225 95 833
276 1467 958 1678 1804 58 232 71 349 71 615 0 271 -13 386 -74 626 -49 193
-93 312 -185 499 -373 758 -1093 1276 -1947 1400 -127 19 -451 27 -576 15z
m453 -480 c813 -91 1493 -639 1749 -1410 142 -427 142 -873 0 -1300 -176 -529
-557 -965 -1060 -1210 -622 -305 -1373 -276 -1969 75 -934 549 -1290 1722
-816 2690 202 413 542 753 955 954 203 99 427 166 651 196 123 16 369 18 490
5z"/>
<path d="M3655 3555 c-22 -8 -42 -15 -45 -15 -2 0 -387 -382 -855 -850 -468
-468 -855 -850 -861 -850 -6 0 -102 97 -215 216 -112 119 -223 227 -247 241
-51 30 -154 42 -218 24 -60 -16 -125 -70 -159 -132 -26 -47 -30 -64 -30 -129
0 -58 6 -85 23 -120 32 -62 679 -701 742 -732 61 -30 157 -30 223 -1 38 18
241 214 1002 970 684 680 962 962 982 998 24 42 28 62 28 125 0 65 -4 82 -31
130 -35 62 -96 114 -152 130 -52 14 -140 12 -187 -5z"/>
</g>
</svg>
