<svg width="164" height="33" viewBox="0 0 164 33" fill="none" xmlns="http://www.w3.org/2000/svg">
<path d="M23.072 1.536L15.104 24H8.256L0.288 1.536H6.112L11.68 18.496L17.28 1.536H23.072ZM42.191 14.784C42.191 15.296 42.159 15.8293 42.095 16.384H29.711C29.7963 17.4933 30.1483 18.3467 30.767 18.944C31.407 19.52 32.1857 19.808 33.103 19.808C34.4683 19.808 35.4177 19.232 35.951 18.08H41.775C41.4763 19.2533 40.9323 20.3093 40.143 21.248C39.375 22.1867 38.4043 22.9227 37.231 23.456C36.0577 23.9893 34.7457 24.256 33.295 24.256C31.5457 24.256 29.9883 23.8827 28.623 23.136C27.2577 22.3893 26.191 21.3227 25.423 19.936C24.655 18.5493 24.271 16.928 24.271 15.072C24.271 13.216 24.6443 11.5947 25.391 10.208C26.159 8.82133 27.2257 7.75467 28.591 7.008C29.9563 6.26133 31.5243 5.888 33.295 5.888C35.023 5.888 36.559 6.25067 37.903 6.976C39.247 7.70133 40.2923 8.736 41.039 10.08C41.807 11.424 42.191 12.992 42.191 14.784ZM36.591 13.344C36.591 12.4053 36.271 11.6587 35.631 11.104C34.991 10.5493 34.191 10.272 33.231 10.272C32.3137 10.272 31.535 10.5387 30.895 11.072C30.2763 11.6053 29.8923 12.3627 29.743 13.344H36.591ZM51.8618 5.888C53.1204 5.888 54.2191 6.144 55.1578 6.656C56.1178 7.168 56.8538 7.84 57.3658 8.672V6.144H62.8378V23.968C62.8378 25.6107 62.5071 27.0933 61.8458 28.416C61.2058 29.76 60.2138 30.8267 58.8698 31.616C57.5471 32.4053 55.8938 32.8 53.9098 32.8C51.2644 32.8 49.1204 32.1707 47.4778 30.912C45.8351 29.6747 44.8964 27.9893 44.6618 25.856H50.0698C50.2404 26.5387 50.6458 27.072 51.2858 27.456C51.9258 27.8613 52.7151 28.064 53.6538 28.064C54.7844 28.064 55.6804 27.7333 56.3418 27.072C57.0244 26.432 57.3658 25.3973 57.3658 23.968V21.44C56.8324 22.272 56.0964 22.9547 55.1578 23.488C54.2191 24 53.1204 24.256 51.8618 24.256C50.3898 24.256 49.0564 23.8827 47.8618 23.136C46.6671 22.368 45.7178 21.2907 45.0138 19.904C44.3311 18.496 43.9898 16.8747 43.9898 15.04C43.9898 13.2053 44.3311 11.5947 45.0138 10.208C45.7178 8.82133 46.6671 7.75467 47.8618 7.008C49.0564 6.26133 50.3898 5.888 51.8618 5.888ZM57.3658 15.072C57.3658 13.7067 56.9818 12.6293 56.2138 11.84C55.4671 11.0507 54.5498 10.656 53.4618 10.656C52.3738 10.656 51.4458 11.0507 50.6778 11.84C49.9311 12.608 49.5578 13.6747 49.5578 15.04C49.5578 16.4053 49.9311 17.4933 50.6778 18.304C51.4458 19.0933 52.3738 19.488 53.4618 19.488C54.5498 19.488 55.4671 19.0933 56.2138 18.304C56.9818 17.5147 57.3658 16.4373 57.3658 15.072ZM83.6285 14.784C83.6285 15.296 83.5965 15.8293 83.5325 16.384H71.1485C71.2338 17.4933 71.5858 18.3467 72.2045 18.944C72.8445 19.52 73.6232 19.808 74.5405 19.808C75.9058 19.808 76.8552 19.232 77.3885 18.08H83.2125C82.9138 19.2533 82.3698 20.3093 81.5805 21.248C80.8125 22.1867 79.8418 22.9227 78.6685 23.456C77.4952 23.9893 76.1832 24.256 74.7325 24.256C72.9832 24.256 71.4258 23.8827 70.0605 23.136C68.6952 22.3893 67.6285 21.3227 66.8605 19.936C66.0925 18.5493 65.7085 16.928 65.7085 15.072C65.7085 13.216 66.0818 11.5947 66.8285 10.208C67.5965 8.82133 68.6632 7.75467 70.0285 7.008C71.3938 6.26133 72.9618 5.888 74.7325 5.888C76.4605 5.888 77.9965 6.25067 79.3405 6.976C80.6845 7.70133 81.7298 8.736 82.4765 10.08C83.2445 11.424 83.6285 12.992 83.6285 14.784ZM78.0285 13.344C78.0285 12.4053 77.7085 11.6587 77.0685 11.104C76.4285 10.5493 75.6285 10.272 74.6685 10.272C73.7512 10.272 72.9725 10.5387 72.3325 11.072C71.7138 11.6053 71.3298 12.3627 71.1805 13.344H78.0285ZM93.8753 24.224C92.4033 24.224 91.1019 23.968 89.9713 23.456C88.8619 22.944 87.9873 22.2293 87.3473 21.312C86.7073 20.3947 86.3659 19.3707 86.3233 18.24H88.6913C88.7979 19.328 89.2779 20.288 90.1313 21.12C90.9846 21.9307 92.2326 22.336 93.8753 22.336C95.3899 22.336 96.5846 21.952 97.4593 21.184C98.3553 20.3947 98.8033 19.4027 98.8033 18.208C98.8033 17.248 98.5579 16.48 98.0673 15.904C97.5766 15.3067 96.9686 14.8693 96.2433 14.592C95.5179 14.2933 94.5153 13.9733 93.2353 13.632C91.7419 13.2267 90.5579 12.832 89.6833 12.448C88.8086 12.064 88.0619 11.4667 87.4433 10.656C86.8246 9.84533 86.5153 8.74667 86.5153 7.36C86.5153 6.208 86.8139 5.184 87.4113 4.288C88.0086 3.37067 88.8513 2.656 89.9393 2.144C91.0273 1.632 92.2753 1.376 93.6833 1.376C95.7526 1.376 97.4166 1.888 98.6753 2.912C99.9553 3.91467 100.691 5.216 100.883 6.816H98.4513C98.3019 5.89867 97.8006 5.088 96.9473 4.384C96.0939 3.65867 94.9419 3.296 93.4913 3.296C92.1473 3.296 91.0273 3.65867 90.1313 4.384C89.2353 5.088 88.7873 6.05867 88.7873 7.296C88.7873 8.23467 89.0326 8.992 89.5233 9.568C90.0139 10.144 90.6219 10.5813 91.3473 10.88C92.0939 11.1787 93.0966 11.4987 94.3553 11.84C95.8059 12.2453 96.9793 12.6507 97.8753 13.056C98.7713 13.44 99.5286 14.0373 100.147 14.848C100.766 15.6587 101.075 16.7467 101.075 18.112C101.075 19.1573 100.798 20.1493 100.243 21.088C99.6886 22.0267 98.8673 22.784 97.7793 23.36C96.6913 23.936 95.3899 24.224 93.8753 24.224ZM113.724 6.208C115.046 6.208 116.23 6.48533 117.276 7.04C118.342 7.59467 119.174 8.448 119.772 9.6C120.39 10.7307 120.7 12.1173 120.7 13.76V24H118.492V14.016C118.492 12.1173 118.012 10.6667 117.052 9.664C116.113 8.66133 114.822 8.16 113.18 8.16C111.494 8.16 110.15 8.69333 109.148 9.76C108.145 10.8267 107.644 12.3947 107.644 14.464V24H105.404V0.32H107.644V9.504C108.198 8.45867 109.009 7.648 110.076 7.072C111.164 6.496 112.38 6.208 113.724 6.208ZM133.302 24.256C131.659 24.256 130.176 23.8933 128.854 23.168C127.552 22.4213 126.518 21.376 125.75 20.032C125.003 18.6667 124.63 17.0773 124.63 15.264C124.63 13.4507 125.014 11.872 125.782 10.528C126.55 9.16267 127.595 8.11733 128.918 7.392C130.24 6.64533 131.723 6.272 133.366 6.272C135.008 6.272 136.491 6.64533 137.814 7.392C139.158 8.11733 140.203 9.16267 140.95 10.528C141.718 11.872 142.102 13.4507 142.102 15.264C142.102 17.056 141.718 18.6347 140.95 20C140.182 21.3653 139.126 22.4213 137.782 23.168C136.438 23.8933 134.944 24.256 133.302 24.256ZM133.302 22.304C134.454 22.304 135.52 22.048 136.502 21.536C137.483 21.0027 138.272 20.2133 138.87 19.168C139.488 18.1013 139.798 16.8 139.798 15.264C139.798 13.728 139.499 12.4373 138.902 11.392C138.304 10.3253 137.515 9.536 136.534 9.024C135.552 8.49067 134.486 8.224 133.334 8.224C132.182 8.224 131.115 8.49067 130.134 9.024C129.152 9.536 128.363 10.3253 127.766 11.392C127.19 12.4373 126.902 13.728 126.902 15.264C126.902 16.8 127.19 18.1013 127.766 19.168C128.363 20.2133 129.142 21.0027 130.102 21.536C131.083 22.048 132.15 22.304 133.302 22.304ZM148.393 10.368C148.948 9.19467 149.822 8.224 151.017 7.456C152.233 6.66667 153.673 6.272 155.337 6.272C156.916 6.272 158.334 6.64533 159.593 7.392C160.873 8.11733 161.865 9.16267 162.569 10.528C163.294 11.872 163.657 13.44 163.657 15.232C163.657 17.024 163.294 18.6027 162.569 19.968C161.865 21.3333 160.873 22.3893 159.593 23.136C158.334 23.8827 156.916 24.256 155.337 24.256C153.694 24.256 152.265 23.872 151.049 23.104C149.833 22.3147 148.948 21.3333 148.393 20.16V32.256H146.185V6.528H148.393V10.368ZM161.385 15.232C161.385 13.7813 161.097 12.5333 160.521 11.488C159.966 10.4213 159.198 9.61067 158.217 9.056C157.236 8.50133 156.126 8.224 154.889 8.224C153.694 8.224 152.596 8.512 151.593 9.088C150.612 9.664 149.833 10.4853 149.257 11.552C148.681 12.6187 148.393 13.856 148.393 15.264C148.393 16.672 148.681 17.9093 149.257 18.976C149.833 20.0427 150.612 20.864 151.593 21.44C152.596 22.016 153.694 22.304 154.889 22.304C156.126 22.304 157.236 22.0267 158.217 21.472C159.198 20.896 159.966 20.0747 160.521 19.008C161.097 17.92 161.385 16.6613 161.385 15.232Z" fill="black"/>
</svg>
